<svg xmlns="http://www.w3.org/2000/svg" xmlns:xlink="http://www.w3.org/1999/xlink" xmlns:lucid="lucid" width="974.1" height="1200"><g transform="translate(-20 0)" lucid:page-tab-id="0sGs1qVd3tph"><path d="M0 0h1360v1760H0z" fill="#fff"/><path d="M40 20h120v100H40z" stroke="#000" stroke-width="2" fill="#fff"/><use xlink:href="#a" transform="matrix(1,0,0,1,40,20) translate(37.08 55.025)"/><path d="M40 1080h120v100H40z" stroke="#000" stroke-width="2" fill="#fff"/><use xlink:href="#a" transform="matrix(1,0,0,1,40,1080) translate(37.08 55.025)"/><path d="M100 121v958" fill="none"/><path d="M100 121v9.98m0 9.98v19.96m0 9.98v19.95m0 9.98v19.96m0 9.97v19.96m0 9.98v19.97m0 9.98v19.95m0 9.98v19.96m0 9.98v19.96m0 9.98v19.96m0 9.98v19.95m0 9.98v19.96m0 9.97v19.96m0 9.98v19.97m0 9.98v19.95m0 9.98v19.96m0 9.98v19.96m0 9.98v19.96m0 9.98v19.95m0 9.98v19.96m0 9.97v19.96m0 9.98v19.97m0 9.98v19.95m0 9.98v19.96m0 9.98v19.96m0 9.98v19.96m0 9.98v19.95m0 9.98v19.96m0 9.97v19.96m0 9.98v19.97m0 9.98v19.95m0 9.98v19.96m0 9.98v9.98" stroke="#000" stroke-width="2" fill="none"/><path d="M101 121h-2v-1h2zM101 1080h-2v-1h2z"/><path d="M351.5 20h120v100h-120z" stroke="#000" stroke-width="2" fill="#fff"/><use xlink:href="#b" transform="matrix(1,0,0,1,351.5,20) translate(31.255000000000003 55.025)"/><path d="M351.5 1080h120v100h-120z" stroke="#000" stroke-width="2" fill="#fff"/><use xlink:href="#b" transform="matrix(1,0,0,1,351.5,1080) translate(31.255000000000003 55.025)"/><path d="M411.5 121v958" fill="none"/><path d="M411.5 121v9.98m0 9.98v19.96m0 9.98v19.95m0 9.98v19.96m0 9.97v19.96m0 9.98v19.97m0 9.98v19.95m0 9.98v19.96m0 9.98v19.96m0 9.98v19.96m0 9.98v19.95m0 9.98v19.96m0 9.97v19.96m0 9.98v19.97m0 9.98v19.95m0 9.98v19.96m0 9.98v19.96m0 9.98v19.96m0 9.98v19.95m0 9.98v19.96m0 9.97v19.96m0 9.98v19.97m0 9.98v19.95m0 9.98v19.96m0 9.98v19.96m0 9.98v19.96m0 9.98v19.95m0 9.98v19.96m0 9.97v19.96m0 9.98v19.97m0 9.98v19.95m0 9.98v19.96m0 9.98v9.98" stroke="#000" stroke-width="2" fill="none"/><path d="M412.5 121h-2v-1h2zM412.5 1080h-2v-1h2z"/><path d="M614.1 20h120v100h-120z" stroke="#000" stroke-width="2" fill="#fff"/><use xlink:href="#c" transform="matrix(1,0,0,1,614.1,20) translate(9.029999999999996 55.025)"/><path d="M614.1 1080h120v100h-120z" stroke="#000" stroke-width="2" fill="#fff"/><use xlink:href="#c" transform="matrix(1,0,0,1,614.1,1080) translate(9.029999999999996 55.025)"/><path d="M674.1 121v958" fill="none"/><path d="M674.1 121v9.98m0 9.98v19.96m0 9.98v19.95m0 9.98v19.96m0 9.97v19.96m0 9.98v19.97m0 9.98v19.95m0 9.98v19.96m0 9.98v19.96m0 9.98v19.96m0 9.98v19.95m0 9.98v19.96m0 9.97v19.96m0 9.98v19.97m0 9.98v19.95m0 9.98v19.96m0 9.98v19.96m0 9.98v19.96m0 9.98v19.95m0 9.98v19.96m0 9.97v19.96m0 9.98v19.97m0 9.98v19.95m0 9.98v19.96m0 9.98v19.96m0 9.98v19.96m0 9.98v19.95m0 9.98v19.96m0 9.97v19.96m0 9.98v19.97m0 9.98v19.95m0 9.98v19.96m0 9.98v9.98" stroke="#000" stroke-width="2" fill="none"/><path d="M675.1 121h-2v-1h2zM675.1 1080h-2v-1h2z"/><path d="M854.1 20h120v100h-120zM854.1 1080h120v100h-120z" stroke="#000" stroke-width="2" fill="#fff"/><path d="M914.1 121v958" fill="none"/><path d="M914.1 121v9.98m0 9.98v19.96m0 9.98v19.95m0 9.98v19.96m0 9.97v19.96m0 9.98v19.97m0 9.98v19.95m0 9.98v19.96m0 9.98v19.96m0 9.98v19.96m0 9.98v19.95m0 9.98v19.96m0 9.97v19.96m0 9.98v19.97m0 9.98v19.95m0 9.98v19.96m0 9.98v19.96m0 9.98v19.96m0 9.98v19.95m0 9.98v19.96m0 9.97v19.96m0 9.98v19.97m0 9.98v19.95m0 9.98v19.96m0 9.98v19.96m0 9.98v19.96m0 9.98v19.95m0 9.98v19.96m0 9.97v19.96m0 9.98v19.97m0 9.98v19.95m0 9.98v19.96m0 9.98v9.98" stroke="#000" stroke-width="2" fill="none"/><path d="M915.1 121h-2v-1h2zM915.1 1080h-2v-1h2z"/><path d="M100 180.88h293.26" stroke="#000" stroke-width="2" fill="none"/><path d="M408.26 180.88L394 185.5v-9.26z" stroke="#000" stroke-width="2"/><use xlink:href="#d" transform="matrix(1,0,0,1,144.85,155.27499999999998) translate(0 14.4)"/><use xlink:href="#e" transform="matrix(1,0,0,1,144.85,155.27499999999998) translate(20 14.4)"/><use xlink:href="#f" transform="matrix(1,0,0,1,144.85,155.27499999999998) translate(64 14.4)"/><use xlink:href="#g" transform="matrix(1,0,0,1,144.85,155.27499999999998) translate(161.85000000000002 14.4)"/><path d="M411.5 240.75H118.24" fill="none"/><path d="M411.5 240.75h-9.78m-9.77 0H372.4m-9.78 0h-19.55m-9.77 0h-19.55m-9.78 0h-19.55m-9.78 0H255.1m-9.78 0h-19.55m-9.78 0h-19.56m-9.78 0H167.1m-9.76 0H137.8m-9.8 0h-9.76" stroke="#000" stroke-width="2" fill="none"/><path d="M103.24 240.75l14.26-4.64v9.3z" stroke="#000" stroke-width="2"/><use xlink:href="#h" transform="matrix(1,0,0,1,231.75,215.14999999999998) translate(0 14.4)"/><use xlink:href="#i" transform="matrix(1,0,0,1,231.75,215.14999999999998) translate(20 14.4)"/><path d="M328.07 260h154.86l12 12v48H328.06z" stroke="#000" stroke-width="2" fill="#fff"/><path d="M482.93 260l12 12-9.6-2.4z" stroke="#000" stroke-width="2" fill="#b3b3b3"/><use xlink:href="#j" transform="matrix(1,0,0,1,328.075,260) translate(20.07999999999999 33.15)"/><use xlink:href="#g" transform="matrix(1,0,0,1,328.075,260) translate(86.98 33.15)"/><path d="M411.5 380.46h260.64M654.92 390.64l17.22-10.18-17.22-10.18" stroke="#000" stroke-width="2" fill="none"/><use xlink:href="#k" transform="matrix(1,0,0,1,441.82499999999993,354.8583333333333) translate(0 14.4)"/><use xlink:href="#l" transform="matrix(1,0,0,1,441.82499999999993,354.8583333333333) translate(20 14.4)"/><use xlink:href="#m" transform="matrix(1,0,0,1,441.82499999999993,354.8583333333333) translate(64 14.4)"/><use xlink:href="#n" transform="matrix(1,0,0,1,441.82499999999993,354.8583333333333) translate(113 14.4)"/><use xlink:href="#o" transform="matrix(1,0,0,1,441.82499999999993,354.8583333333333) translate(133 14.4)"/><path d="M674.1 440.33h221.76" stroke="#000" stroke-width="2" fill="none"/><path d="M910.86 440.33l-14.26 4.64v-9.27z" stroke="#000" stroke-width="2"/><use xlink:href="#p" transform="matrix(1,0,0,1,750.1750000000002,414.7333333333333) translate(0 14.4)"/><use xlink:href="#q" transform="matrix(1,0,0,1,750.1750000000002,414.7333333333333) translate(20 14.4)"/><path d="M914.1 500.2H692.34" fill="none"/><path d="M914.1 500.2h-10.56m-10.56 0h-21.12m-10.56 0h-21.12m-10.56 0H808.5m-10.56 0h-21.12m-10.56 0h-21.12m-10.56 0h-21.12m-10.56 0h-10.56" stroke="#000" stroke-width="2" fill="none"/><path d="M677.34 500.2l14.26-4.63v9.27z" stroke="#000" stroke-width="2"/><use xlink:href="#r" transform="matrix(1,0,0,1,770.1,474.60833333333335) translate(0 14.4)"/><use xlink:href="#i" transform="matrix(1,0,0,1,770.1,474.60833333333335) translate(20 14.4)"/><path d="M674.1 560.08H429.74" fill="none"/><path d="M674.1 560.08h-10.18m-10.18 0h-20.37m-10.18 0h-20.37m-10.18 0h-20.37m-10.18 0h-20.36m-10.2 0H511.2m-10.2 0h-20.35m-10.2 0H450.1m-10.18 0h-10.18" stroke="#000" stroke-width="2" fill="none"/><path d="M414.74 560.08l14.26-4.63v9.27z" stroke="#000" stroke-width="2"/><use xlink:href="#s" transform="matrix(1,0,0,1,518.8,534.4833333333332) translate(0 14.4)"/><use xlink:href="#i" transform="matrix(1,0,0,1,518.8,534.4833333333332) translate(20 14.4)"/><path d="M517.33 580h297.54l16 16v64H517.34z" stroke="#000" stroke-width="2" fill="#fff"/><path d="M814.88 580l16 16-12.8-3.2z" stroke="#000" stroke-width="2" fill="#b3b3b3"/><use xlink:href="#t" transform="matrix(1,0,0,1,517.325,580) translate(16.70499999999999 31.9)"/><use xlink:href="#u" transform="matrix(1,0,0,1,517.325,580) translate(81.605 31.9)"/><use xlink:href="#v" transform="matrix(1,0,0,1,517.325,580) translate(157.455 31.9)"/><use xlink:href="#w" transform="matrix(1,0,0,1,517.325,580) translate(183.405 31.9)"/><use xlink:href="#x" transform="matrix(1,0,0,1,517.325,580) translate(20.229999999999997 53.5)"/><use xlink:href="#y" transform="matrix(1,0,0,1,517.325,580) translate(64.22999999999999 53.5)"/><use xlink:href="#z" transform="matrix(1,0,0,1,517.325,580) translate(127.13 53.5)"/><use xlink:href="#A" transform="matrix(1,0,0,1,517.325,580) translate(147.13 53.5)"/><use xlink:href="#B" transform="matrix(1,0,0,1,517.325,580) translate(170.03 53.5)"/><use xlink:href="#C" transform="matrix(1,0,0,1,517.325,580) translate(231.93 53.5)"/><path d="M411.5 739.7h244.36" stroke="#000" stroke-width="2" fill="none"/><path d="M670.86 739.7l-14.26 4.64v-9.27z" stroke="#000" stroke-width="2"/><g><use xlink:href="#D" transform="matrix(1,0,0,1,474.87499999999994,692.5083333333333) translate(0 14.4)"/><use xlink:href="#E" transform="matrix(1,0,0,1,474.87499999999994,692.5083333333333) translate(20 14.4)"/><use xlink:href="#m" transform="matrix(1,0,0,1,474.87499999999994,692.5083333333333) translate(52.9 14.4)"/><use xlink:href="#F" transform="matrix(1,0,0,1,474.87499999999994,692.5083333333333) translate(101.9 14.4)"/><use xlink:href="#G" transform="matrix(1,0,0,1,474.87499999999994,692.5083333333333) translate(0 36)"/><use xlink:href="#o" transform="matrix(1,0,0,1,474.87499999999994,692.5083333333333) translate(66.9 36)"/></g><path d="M674.1 799.58H429.74" fill="none"/><path d="M674.1 799.58h-10.18m-10.18 0h-20.37m-10.18 0h-20.37m-10.18 0h-20.37m-10.18 0h-20.36m-10.2 0H511.2m-10.2 0h-20.35m-10.2 0H450.1m-10.18 0h-10.18" stroke="#000" stroke-width="2" fill="none"/><path d="M414.74 799.58l14.26-4.63v9.27z" stroke="#000" stroke-width="2"/><g><use xlink:href="#H" transform="matrix(1,0,0,1,478.32499999999993,773.9833333333335) translate(0 14.4)"/><use xlink:href="#I" transform="matrix(1,0,0,1,478.32499999999993,773.9833333333335) translate(20 14.4)"/><use xlink:href="#J" transform="matrix(1,0,0,1,478.32499999999993,773.9833333333335) translate(84.95 14.4)"/></g><path d="M246.22 820h310.55l20 20v80H246.23z" stroke="#000" stroke-width="2" fill="#fff"/><path d="M556.77 820l20 20-16-4z" stroke="#000" stroke-width="2" fill="#b3b3b3"/><g><use xlink:href="#K" transform="matrix(1,0,0,1,246.225,820) translate(39.63 33.15)"/><use xlink:href="#f" transform="matrix(1,0,0,1,246.225,820) translate(107.58000000000001 33.15)"/><use xlink:href="#L" transform="matrix(1,0,0,1,246.225,820) translate(205.43 33.15)"/><use xlink:href="#M" transform="matrix(1,0,0,1,246.225,820) translate(88.105 54.75)"/><use xlink:href="#N" transform="matrix(1,0,0,1,246.225,820) translate(150.955 54.75)"/><use xlink:href="#O" transform="matrix(1,0,0,1,246.225,820) translate(194.90500000000003 54.75)"/><use xlink:href="#P" transform="matrix(1,0,0,1,246.225,820) translate(20.22999999999997 76.35000000000001)"/><use xlink:href="#Q" transform="matrix(1,0,0,1,246.225,820) translate(76.12999999999997 76.35000000000001)"/><use xlink:href="#R" transform="matrix(1,0,0,1,246.225,820) translate(109.07999999999998 76.35000000000001)"/><use xlink:href="#S" transform="matrix(1,0,0,1,246.225,820) translate(192.98 76.35000000000001)"/><use xlink:href="#T" transform="matrix(1,0,0,1,246.225,820) translate(248.88 76.35000000000001)"/></g><path d="M411.5 979.2h260.64" fill="none"/><path d="M411.5 979.2h9.65m9.66 0h19.3m9.67 0h19.3m9.66 0h19.3m9.65 0h19.3m9.66 0h19.3m9.66 0h19.3m9.66 0h19.3m9.66 0h19.3m9.66 0h9.66M654.92 989.4l17.22-10.2-17.22-10.17" stroke="#000" stroke-width="2" fill="none"/><g><use xlink:href="#U" transform="matrix(1,0,0,1,426.44999999999993,953.6083333333335) translate(0 14.4)"/><use xlink:href="#V" transform="matrix(1,0,0,1,426.44999999999993,953.6083333333335) translate(20 14.4)"/><use xlink:href="#W" transform="matrix(1,0,0,1,426.44999999999993,953.6083333333335) translate(82.85000000000001 14.4)"/><use xlink:href="#T" transform="matrix(1,0,0,1,426.44999999999993,953.6083333333335) translate(170.8 14.4)"/></g><path d="M411.5 1039.08H118.24" stroke="#000" stroke-width="2" fill="none"/><path d="M103.24 1039.08l14.26-4.63v9.27z" stroke="#000" stroke-width="2"/><g><use xlink:href="#X" transform="matrix(1,0,0,1,114.94999999999999,1013.4833333333336) translate(0 14.4)"/><use xlink:href="#e" transform="matrix(1,0,0,1,114.94999999999999,1013.4833333333336) translate(30 14.4)"/><use xlink:href="#Y" transform="matrix(1,0,0,1,114.94999999999999,1013.4833333333336) translate(74 14.4)"/><use xlink:href="#Z" transform="matrix(1,0,0,1,114.94999999999999,1013.4833333333336) translate(152.95 14.4)"/></g><defs><path d="M212-179c-10-28-35-45-73-45-59 0-87 40-87 99 0 60 29 101 89 101 43 0 62-24 78-52l27 14C228-24 195 4 139 4 59 4 22-46 18-125c-6-104 99-153 187-111 19 9 31 26 39 46" id="aa"/><path d="M24 0v-261h32V0H24" id="ab"/><path d="M24-231v-30h32v30H24zM24 0v-190h32V0H24" id="ac"/><path d="M100-194c63 0 86 42 84 106H49c0 40 14 67 53 68 26 1 43-12 49-29l28 8c-11 28-37 45-77 45C44 4 14-33 15-96c1-61 26-98 85-98zm52 81c6-60-76-77-97-28-3 7-6 17-6 28h103" id="ad"/><path d="M117-194c89-4 53 116 60 194h-32v-121c0-31-8-49-39-48C34-167 62-67 57 0H25l-1-190h30c1 10-1 24 2 32 11-22 29-35 61-36" id="ae"/><path d="M59-47c-2 24 18 29 38 22v24C64 9 27 4 27-40v-127H5v-23h24l9-43h21v43h35v23H59v120" id="af"/><g id="a"><use transform="matrix(0.05,0,0,0.05,0,0)" xlink:href="#aa"/><use transform="matrix(0.05,0,0,0.05,12.950000000000001,0)" xlink:href="#ab"/><use transform="matrix(0.05,0,0,0.05,16.900000000000002,0)" xlink:href="#ac"/><use transform="matrix(0.05,0,0,0.05,20.85,0)" xlink:href="#ad"/><use transform="matrix(0.05,0,0,0.05,30.85,0)" xlink:href="#ae"/><use transform="matrix(0.05,0,0,0.05,40.85,0)" xlink:href="#af"/></g><path d="M266 0h-40l-56-210L115 0H75L2-248h35L96-30l15-64 43-154h32l59 218 59-218h35" id="ag"/><path d="M100-194c62-1 85 37 85 99 1 63-27 99-86 99S16-35 15-95c0-66 28-99 85-99zM99-20c44 1 53-31 53-75 0-43-8-75-51-75s-53 32-53 75 10 74 51 75" id="ah"/><path d="M114-163C36-179 61-72 57 0H25l-1-190h30c1 12-1 29 2 39 6-27 23-49 58-41v29" id="ai"/><path d="M143 0L79-87 56-68V0H24v-261h32v163l83-92h37l-77 82L181 0h-38" id="aj"/><g id="b"><use transform="matrix(0.05,0,0,0.05,0,0)" xlink:href="#ag"/><use transform="matrix(0.05,0,0,0.05,16.599999999999998,0)" xlink:href="#ah"/><use transform="matrix(0.05,0,0,0.05,26.599999999999994,0)" xlink:href="#ai"/><use transform="matrix(0.05,0,0,0.05,32.55,0)" xlink:href="#aj"/><use transform="matrix(0.05,0,0,0.05,41.55,0)" xlink:href="#ad"/><use transform="matrix(0.05,0,0,0.05,51.54999999999999,0)" xlink:href="#ai"/></g><path d="M194 0L95-120 63-95V0H30v-248h33v124l119-124h40L117-140 236 0h-42" id="ak"/><path d="M141-36C126-15 110 5 73 4 37 3 15-17 15-53c-1-64 63-63 125-63 3-35-9-54-41-54-24 1-41 7-42 31l-33-3c5-37 33-52 76-52 45 0 72 20 72 64v82c-1 20 7 32 28 27v20c-31 9-61-2-59-35zM48-53c0 20 12 33 32 33 41-3 63-29 60-74-43 2-92-5-92 41" id="al"/><path d="M101-234c-31-9-42 10-38 44h38v23H63V0H32v-167H5v-23h27c-7-52 17-82 69-68v24" id="am"/><path d="M30 0v-248h33v221h125V0H30" id="an"/><path d="M85-194c31 0 48 13 60 33l-1-100h32l1 261h-30c-2-10 0-23-3-31C134-8 116 4 85 4 32 4 16-35 15-94c0-66 23-100 70-100zm9 24c-40 0-46 34-46 75 0 40 6 74 45 74 42 0 51-32 51-76 0-42-9-74-50-73" id="ao"/><g id="c"><use transform="matrix(0.05,0,0,0.05,0,0)" xlink:href="#ak"/><use transform="matrix(0.05,0,0,0.05,12,0)" xlink:href="#al"/><use transform="matrix(0.05,0,0,0.05,22,0)" xlink:href="#am"/><use transform="matrix(0.05,0,0,0.05,27,0)" xlink:href="#aj"/><use transform="matrix(0.05,0,0,0.05,36,0)" xlink:href="#al"/><use transform="matrix(0.05,0,0,0.05,46,0)" xlink:href="#an"/><use transform="matrix(0.05,0,0,0.05,56,0)" xlink:href="#ad"/><use transform="matrix(0.05,0,0,0.05,66,0)" xlink:href="#al"/><use transform="matrix(0.05,0,0,0.05,76,0)" xlink:href="#ao"/><use transform="matrix(0.05,0,0,0.05,86,0)" xlink:href="#ad"/><use transform="matrix(0.05,0,0,0.05,96,0)" xlink:href="#ai"/></g><path d="M27 0v-27h64v-190l-56 39v-29l58-41h29v221h61V0H27" id="ap"/><path d="M33-154v-36h34v36H33zM33 0v-36h34V0H33" id="aq"/><g id="d"><use transform="matrix(0.05,0,0,0.05,0,0)" xlink:href="#ap"/><use transform="matrix(0.05,0,0,0.05,10,0)" xlink:href="#aq"/></g><path d="M135-143c-3-34-86-38-87 0 15 53 115 12 119 90S17 21 10-45l28-5c4 36 97 45 98 0-10-56-113-15-118-90-4-57 82-63 122-42 12 7 21 19 24 35" id="ar"/><g id="e"><use transform="matrix(0.05,0,0,0.05,0,0)" xlink:href="#ar"/><use transform="matrix(0.05,0,0,0.05,9,0)" xlink:href="#ad"/><use transform="matrix(0.05,0,0,0.05,19,0)" xlink:href="#ae"/><use transform="matrix(0.05,0,0,0.05,29,0)" xlink:href="#ao"/></g><g id="f"><use transform="matrix(0.05,0,0,0.05,0,0)" xlink:href="#ae"/><use transform="matrix(0.05,0,0,0.05,10,0)" xlink:href="#ah"/><use transform="matrix(0.05,0,0,0.05,20,0)" xlink:href="#af"/><use transform="matrix(0.05,0,0,0.05,25,0)" xlink:href="#al"/><use transform="matrix(0.05,0,0,0.05,35,0)" xlink:href="#ai"/><use transform="matrix(0.05,0,0,0.05,40.95,0)" xlink:href="#ac"/><use transform="matrix(0.05,0,0,0.05,44.900000000000006,0)" xlink:href="#ar"/><use transform="matrix(0.05,0,0,0.05,53.900000000000006,0)" xlink:href="#al"/><use transform="matrix(0.05,0,0,0.05,63.900000000000006,0)" xlink:href="#af"/><use transform="matrix(0.05,0,0,0.05,68.9,0)" xlink:href="#ac"/><use transform="matrix(0.05,0,0,0.05,72.85000000000001,0)" xlink:href="#ah"/><use transform="matrix(0.05,0,0,0.05,82.85000000000001,0)" xlink:href="#ae"/></g><path d="M145-31C134-9 116 4 85 4 32 4 16-35 15-94c0-59 17-99 70-100 32-1 48 14 60 33 0-11-1-24 2-32h30l-1 268h-32zM93-21c41 0 51-33 51-76s-8-73-50-73c-40 0-46 35-46 75s5 74 45 74" id="as"/><path d="M84 4C-5 8 30-112 23-190h32v120c0 31 7 50 39 49 72-2 45-101 50-169h31l1 190h-30c-1-10 1-25-2-33-11 22-28 36-60 37" id="at"/><g id="g"><use transform="matrix(0.05,0,0,0.05,0,0)" xlink:href="#ai"/><use transform="matrix(0.05,0,0,0.05,5.95,0)" xlink:href="#ad"/><use transform="matrix(0.05,0,0,0.05,15.949999999999998,0)" xlink:href="#as"/><use transform="matrix(0.05,0,0,0.05,25.950000000000003,0)" xlink:href="#at"/><use transform="matrix(0.05,0,0,0.05,35.95,0)" xlink:href="#ad"/><use transform="matrix(0.05,0,0,0.05,45.95,0)" xlink:href="#ar"/><use transform="matrix(0.05,0,0,0.05,54.95,0)" xlink:href="#af"/></g><path d="M101-251c82-7 93 87 43 132L82-64C71-53 59-42 53-27h129V0H18c2-99 128-94 128-182 0-28-16-43-45-43s-46 15-49 41l-32-3c6-41 34-60 81-64" id="au"/><g id="h"><use transform="matrix(0.05,0,0,0.05,0,0)" xlink:href="#au"/><use transform="matrix(0.05,0,0,0.05,10,0)" xlink:href="#aq"/></g><path d="M96-169c-40 0-48 33-48 73s9 75 48 75c24 0 41-14 43-38l32 2c-6 37-31 61-74 61-59 0-76-41-82-99-10-93 101-131 147-64 4 7 5 14 7 22l-32 3c-4-21-16-35-41-35" id="av"/><g id="i"><use transform="matrix(0.05,0,0,0.05,0,0)" xlink:href="#al"/><use transform="matrix(0.05,0,0,0.05,10,0)" xlink:href="#av"/><use transform="matrix(0.05,0,0,0.05,19,0)" xlink:href="#aj"/></g><path d="M108 0H70L1-190h34L89-25l56-165h34" id="aw"/><g id="j"><use transform="matrix(0.05,0,0,0.05,0,0)" xlink:href="#aw"/><use transform="matrix(0.05,0,0,0.05,9,0)" xlink:href="#al"/><use transform="matrix(0.05,0,0,0.05,19,0)" xlink:href="#ab"/><use transform="matrix(0.05,0,0,0.05,22.95,0)" xlink:href="#ac"/><use transform="matrix(0.05,0,0,0.05,26.899999999999995,0)" xlink:href="#ao"/><use transform="matrix(0.05,0,0,0.05,36.9,0)" xlink:href="#al"/><use transform="matrix(0.05,0,0,0.05,46.9,0)" xlink:href="#af"/><use transform="matrix(0.05,0,0,0.05,51.900000000000006,0)" xlink:href="#ad"/></g><path d="M126-127c33 6 58 20 58 59 0 88-139 92-164 29-3-8-5-16-6-25l32-3c6 27 21 44 54 44 32 0 52-15 52-46 0-38-36-46-79-43v-28c39 1 72-4 72-42 0-27-17-43-46-43-28 0-47 15-49 41l-32-3c6-42 35-63 81-64 48-1 79 21 79 65 0 36-21 52-52 59" id="ax"/><g id="k"><use transform="matrix(0.05,0,0,0.05,0,0)" xlink:href="#ax"/><use transform="matrix(0.05,0,0,0.05,10,0)" xlink:href="#aq"/></g><path d="M115-194c55 1 70 41 70 98S169 2 115 4C84 4 66-9 55-30l1 105H24l-1-265h31l2 30c10-21 28-34 59-34zm-8 174c40 0 45-34 45-75s-6-73-45-74c-42 0-51 32-51 76 0 43 10 73 51 73" id="ay"/><path d="M106-169C34-169 62-67 57 0H25v-261h32l-1 103c12-21 28-36 61-36 89 0 53 116 60 194h-32v-121c2-32-8-49-39-48" id="az"/><g id="l"><use transform="matrix(0.05,0,0,0.05,0,0)" xlink:href="#ay"/><use transform="matrix(0.05,0,0,0.05,10,0)" xlink:href="#at"/><use transform="matrix(0.05,0,0,0.05,20,0)" xlink:href="#ar"/><use transform="matrix(0.05,0,0,0.05,29,0)" xlink:href="#az"/></g><path d="M115-194c53 0 69 39 70 98 0 66-23 100-70 100C84 3 66-7 56-30L54 0H23l1-261h32v101c10-23 28-34 59-34zm-8 174c40 0 45-34 45-75 0-40-5-75-45-74-42 0-51 32-51 76 0 43 10 73 51 73" id="aA"/><g id="m"><use transform="matrix(0.05,0,0,0.05,0,0)" xlink:href="#aA"/><use transform="matrix(0.05,0,0,0.05,10,0)" xlink:href="#al"/><use transform="matrix(0.05,0,0,0.05,20,0)" xlink:href="#af"/><use transform="matrix(0.05,0,0,0.05,25,0)" xlink:href="#av"/><use transform="matrix(0.05,0,0,0.05,34,0)" xlink:href="#az"/></g><g id="n"><use transform="matrix(0.05,0,0,0.05,0,0)" xlink:href="#ah"/><use transform="matrix(0.05,0,0,0.05,10,0)" xlink:href="#am"/></g><g id="o"><use transform="matrix(0.05,0,0,0.05,0,0)" xlink:href="#ai"/><use transform="matrix(0.05,0,0,0.05,5.95,0)" xlink:href="#ad"/><use transform="matrix(0.05,0,0,0.05,15.949999999999998,0)" xlink:href="#as"/><use transform="matrix(0.05,0,0,0.05,25.950000000000003,0)" xlink:href="#at"/><use transform="matrix(0.05,0,0,0.05,35.95,0)" xlink:href="#ad"/><use transform="matrix(0.05,0,0,0.05,45.95,0)" xlink:href="#ar"/><use transform="matrix(0.05,0,0,0.05,54.95,0)" xlink:href="#af"/><use transform="matrix(0.05,0,0,0.05,59.95,0)" xlink:href="#ar"/></g><path d="M155-56V0h-30v-56H8v-25l114-167h33v167h35v25h-35zm-30-156c-27 46-58 90-88 131h88v-131" id="aB"/><g id="p"><use transform="matrix(0.05,0,0,0.05,0,0)" xlink:href="#aB"/><use transform="matrix(0.05,0,0,0.05,10,0)" xlink:href="#aq"/></g><g id="q"><use transform="matrix(0.05,0,0,0.05,0,0)" xlink:href="#ai"/><use transform="matrix(0.05,0,0,0.05,5.95,0)" xlink:href="#ad"/><use transform="matrix(0.05,0,0,0.05,15.949999999999998,0)" xlink:href="#ay"/><use transform="matrix(0.05,0,0,0.05,25.950000000000003,0)" xlink:href="#ab"/><use transform="matrix(0.05,0,0,0.05,29.899999999999995,0)" xlink:href="#ac"/><use transform="matrix(0.05,0,0,0.05,33.85,0)" xlink:href="#av"/><use transform="matrix(0.05,0,0,0.05,42.85,0)" xlink:href="#al"/><use transform="matrix(0.05,0,0,0.05,52.85,0)" xlink:href="#af"/><use transform="matrix(0.05,0,0,0.05,57.85,0)" xlink:href="#ad"/></g><path d="M54-142c48-35 137-8 131 61C196 18 31 33 14-55l32-4c7 23 22 37 52 37 35-1 51-22 54-58 4-55-73-65-99-34H22l8-134h141v27H59" id="aC"/><g id="r"><use transform="matrix(0.05,0,0,0.05,0,0)" xlink:href="#aC"/><use transform="matrix(0.05,0,0,0.05,10,0)" xlink:href="#aq"/></g><path d="M110-160c48 1 74 30 74 79 0 53-28 85-80 85-65 0-83-55-86-122-5-90 50-162 133-122 14 7 22 21 27 39l-31 6c-5-40-67-38-82-6-9 19-15 44-15 74 11-20 30-34 60-33zm-7 138c34 0 49-23 49-58s-16-56-50-56c-29 0-50 16-49 49 1 36 15 65 50 65" id="aD"/><g id="s"><use transform="matrix(0.05,0,0,0.05,0,0)" xlink:href="#aD"/><use transform="matrix(0.05,0,0,0.05,10,0)" xlink:href="#aq"/></g><g id="t"><use transform="matrix(0.05,0,0,0.05,0,0)" xlink:href="#ai"/><use transform="matrix(0.05,0,0,0.05,5.95,0)" xlink:href="#ad"/><use transform="matrix(0.05,0,0,0.05,15.949999999999998,0)" xlink:href="#av"/><use transform="matrix(0.05,0,0,0.05,24.95,0)" xlink:href="#ah"/><use transform="matrix(0.05,0,0,0.05,34.95,0)" xlink:href="#ai"/><use transform="matrix(0.05,0,0,0.05,40.900000000000006,0)" xlink:href="#ao"/><use transform="matrix(0.05,0,0,0.05,50.900000000000006,0)" xlink:href="#ar"/></g><g id="u"><use transform="matrix(0.05,0,0,0.05,0,0)" xlink:href="#al"/><use transform="matrix(0.05,0,0,0.05,10,0)" xlink:href="#aw"/><use transform="matrix(0.05,0,0,0.05,19,0)" xlink:href="#al"/><use transform="matrix(0.05,0,0,0.05,29,0)" xlink:href="#ac"/><use transform="matrix(0.05,0,0,0.05,32.95,0)" xlink:href="#ab"/><use transform="matrix(0.05,0,0,0.05,36.900000000000006,0)" xlink:href="#al"/><use transform="matrix(0.05,0,0,0.05,46.900000000000006,0)" xlink:href="#aA"/><use transform="matrix(0.05,0,0,0.05,56.900000000000006,0)" xlink:href="#ab"/><use transform="matrix(0.05,0,0,0.05,60.85,0)" xlink:href="#ad"/></g><g id="v"><use transform="matrix(0.05,0,0,0.05,0,0)" xlink:href="#am"/><use transform="matrix(0.05,0,0,0.05,5,0)" xlink:href="#ah"/><use transform="matrix(0.05,0,0,0.05,15,0)" xlink:href="#ai"/></g><path d="M210-169c-67 3-38 105-44 169h-31v-121c0-29-5-50-35-48C34-165 62-65 56 0H25l-1-190h30c1 10-1 24 2 32 10-44 99-50 107 0 11-21 27-35 58-36 85-2 47 119 55 194h-31v-121c0-29-5-49-35-48" id="aE"/><g id="w"><use transform="matrix(0.05,0,0,0.05,0,0)" xlink:href="#av"/><use transform="matrix(0.05,0,0,0.05,9,0)" xlink:href="#ah"/><use transform="matrix(0.05,0,0,0.05,19,0)" xlink:href="#ae"/><use transform="matrix(0.05,0,0,0.05,29,0)" xlink:href="#ar"/><use transform="matrix(0.05,0,0,0.05,38,0)" xlink:href="#at"/><use transform="matrix(0.05,0,0,0.05,48,0)" xlink:href="#aE"/><use transform="matrix(0.05,0,0,0.05,62.95,0)" xlink:href="#ay"/><use transform="matrix(0.05,0,0,0.05,72.95,0)" xlink:href="#af"/><use transform="matrix(0.05,0,0,0.05,77.95,0)" xlink:href="#ac"/><use transform="matrix(0.05,0,0,0.05,81.9,0)" xlink:href="#ah"/><use transform="matrix(0.05,0,0,0.05,91.9,0)" xlink:href="#ae"/></g><g id="x"><use transform="matrix(0.05,0,0,0.05,0,0)" xlink:href="#ah"/><use transform="matrix(0.05,0,0,0.05,10,0)" xlink:href="#ae"/><use transform="matrix(0.05,0,0,0.05,20,0)" xlink:href="#av"/><use transform="matrix(0.05,0,0,0.05,29,0)" xlink:href="#ad"/></g><g id="y"><use transform="matrix(0.05,0,0,0.05,0,0)" xlink:href="#al"/><use transform="matrix(0.05,0,0,0.05,10,0)" xlink:href="#ay"/><use transform="matrix(0.05,0,0,0.05,20,0)" xlink:href="#ay"/><use transform="matrix(0.05,0,0,0.05,30,0)" xlink:href="#ab"/><use transform="matrix(0.05,0,0,0.05,33.95,0)" xlink:href="#ac"/><use transform="matrix(0.05,0,0,0.05,37.900000000000006,0)" xlink:href="#ad"/><use transform="matrix(0.05,0,0,0.05,47.900000000000006,0)" xlink:href="#ao"/></g><g id="z"><use transform="matrix(0.05,0,0,0.05,0,0)" xlink:href="#af"/><use transform="matrix(0.05,0,0,0.05,5,0)" xlink:href="#ah"/></g><g id="A"><use transform="matrix(0.05,0,0,0.05,0,0)" xlink:href="#al"/><use transform="matrix(0.05,0,0,0.05,10,0)" xlink:href="#ab"/><use transform="matrix(0.05,0,0,0.05,13.949999999999998,0)" xlink:href="#ab"/></g><path d="M16-82v-28h88v28H16" id="aF"/><path d="M179-190L93 31C79 59 56 82 12 73V49c39 6 53-20 64-50L1-190h34L92-34l54-156h33" id="aG"/><g id="B"><use transform="matrix(0.05,0,0,0.05,0,0)" xlink:href="#ac"/><use transform="matrix(0.05,0,0,0.05,3.95,0)" xlink:href="#ae"/><use transform="matrix(0.05,0,0,0.05,13.949999999999998,0)" xlink:href="#aF"/><use transform="matrix(0.05,0,0,0.05,19.9,0)" xlink:href="#ar"/><use transform="matrix(0.05,0,0,0.05,28.899999999999995,0)" xlink:href="#aG"/><use transform="matrix(0.05,0,0,0.05,37.9,0)" xlink:href="#ae"/><use transform="matrix(0.05,0,0,0.05,47.9,0)" xlink:href="#av"/></g><g id="C"><use transform="matrix(0.05,0,0,0.05,0,0)" xlink:href="#ai"/><use transform="matrix(0.05,0,0,0.05,5.95,0)" xlink:href="#ad"/><use transform="matrix(0.05,0,0,0.05,15.949999999999998,0)" xlink:href="#ay"/><use transform="matrix(0.05,0,0,0.05,25.950000000000003,0)" xlink:href="#ab"/><use transform="matrix(0.05,0,0,0.05,29.899999999999995,0)" xlink:href="#ac"/><use transform="matrix(0.05,0,0,0.05,33.85,0)" xlink:href="#av"/><use transform="matrix(0.05,0,0,0.05,42.85,0)" xlink:href="#al"/><use transform="matrix(0.05,0,0,0.05,52.85,0)" xlink:href="#ar"/></g><path d="M64 0c3-98 48-159 88-221H18v-27h164v26C143-157 98-101 97 0H64" id="aH"/><g id="D"><use transform="matrix(0.05,0,0,0.05,0,0)" xlink:href="#aH"/><use transform="matrix(0.05,0,0,0.05,10,0)" xlink:href="#aq"/></g><g id="E"><use transform="matrix(0.05,0,0,0.05,0,0)" xlink:href="#ay"/><use transform="matrix(0.05,0,0,0.05,10,0)" xlink:href="#at"/><use transform="matrix(0.05,0,0,0.05,20,0)" xlink:href="#ab"/><use transform="matrix(0.05,0,0,0.05,23.95,0)" xlink:href="#ab"/></g><g id="F"><use transform="matrix(0.05,0,0,0.05,0,0)" xlink:href="#ah"/><use transform="matrix(0.05,0,0,0.05,10,0)" xlink:href="#am"/></g><g id="G"><use transform="matrix(0.05,0,0,0.05,0,0)" xlink:href="#ah"/><use transform="matrix(0.05,0,0,0.05,10,0)" xlink:href="#ai"/><use transform="matrix(0.05,0,0,0.05,15.949999999999998,0)" xlink:href="#ao"/><use transform="matrix(0.05,0,0,0.05,25.950000000000003,0)" xlink:href="#ad"/><use transform="matrix(0.05,0,0,0.05,35.95,0)" xlink:href="#ai"/><use transform="matrix(0.05,0,0,0.05,41.900000000000006,0)" xlink:href="#ad"/><use transform="matrix(0.05,0,0,0.05,51.900000000000006,0)" xlink:href="#ao"/></g><path d="M134-131c28 9 52 24 51 62-1 50-34 73-85 73S17-19 16-69c0-36 21-54 49-61-75-25-45-126 34-121 46 3 78 18 79 63 0 33-17 51-44 57zm-34-11c31 1 46-15 46-44 0-28-17-43-47-42-29 0-46 13-45 42 1 28 16 44 46 44zm1 122c35 0 51-18 51-52 0-30-18-46-53-46-33 0-51 17-51 47 0 34 19 51 53 51" id="aI"/><g id="H"><use transform="matrix(0.05,0,0,0.05,0,0)" xlink:href="#aI"/><use transform="matrix(0.05,0,0,0.05,10,0)" xlink:href="#aq"/></g><g id="I"><use transform="matrix(0.05,0,0,0.05,0,0)" xlink:href="#ai"/><use transform="matrix(0.05,0,0,0.05,5.95,0)" xlink:href="#ad"/><use transform="matrix(0.05,0,0,0.05,15.949999999999998,0)" xlink:href="#as"/><use transform="matrix(0.05,0,0,0.05,25.950000000000003,0)" xlink:href="#at"/><use transform="matrix(0.05,0,0,0.05,35.95,0)" xlink:href="#ad"/><use transform="matrix(0.05,0,0,0.05,45.95,0)" xlink:href="#ar"/><use transform="matrix(0.05,0,0,0.05,54.95,0)" xlink:href="#af"/></g><g id="J"><use transform="matrix(0.05,0,0,0.05,0,0)" xlink:href="#aA"/><use transform="matrix(0.05,0,0,0.05,10,0)" xlink:href="#al"/><use transform="matrix(0.05,0,0,0.05,20,0)" xlink:href="#af"/><use transform="matrix(0.05,0,0,0.05,25,0)" xlink:href="#av"/><use transform="matrix(0.05,0,0,0.05,34,0)" xlink:href="#az"/></g><g id="K"><use transform="matrix(0.05,0,0,0.05,0,0)" xlink:href="#ay"/><use transform="matrix(0.05,0,0,0.05,10,0)" xlink:href="#ai"/><use transform="matrix(0.05,0,0,0.05,15.949999999999998,0)" xlink:href="#ah"/><use transform="matrix(0.05,0,0,0.05,25.950000000000003,0)" xlink:href="#av"/><use transform="matrix(0.05,0,0,0.05,34.95,0)" xlink:href="#ad"/><use transform="matrix(0.05,0,0,0.05,44.95,0)" xlink:href="#ar"/><use transform="matrix(0.05,0,0,0.05,53.95,0)" xlink:href="#ar"/></g><g id="L"><use transform="matrix(0.05,0,0,0.05,0,0)" xlink:href="#ai"/><use transform="matrix(0.05,0,0,0.05,5.95,0)" xlink:href="#ad"/><use transform="matrix(0.05,0,0,0.05,15.949999999999998,0)" xlink:href="#as"/><use transform="matrix(0.05,0,0,0.05,25.950000000000003,0)" xlink:href="#at"/><use transform="matrix(0.05,0,0,0.05,35.95,0)" xlink:href="#ad"/><use transform="matrix(0.05,0,0,0.05,45.95,0)" xlink:href="#ar"/><use transform="matrix(0.05,0,0,0.05,54.95,0)" xlink:href="#af"/><use transform="matrix(0.05,0,0,0.05,59.95,0)" xlink:href="#ar"/></g><g id="M"><use transform="matrix(0.05,0,0,0.05,0,0)" xlink:href="#av"/><use transform="matrix(0.05,0,0,0.05,9,0)" xlink:href="#ah"/><use transform="matrix(0.05,0,0,0.05,19,0)" xlink:href="#aE"/><use transform="matrix(0.05,0,0,0.05,33.95,0)" xlink:href="#aE"/><use transform="matrix(0.05,0,0,0.05,48.900000000000006,0)" xlink:href="#ac"/><use transform="matrix(0.05,0,0,0.05,52.85,0)" xlink:href="#af"/></g><g id="N"><use transform="matrix(0.05,0,0,0.05,0,0)" xlink:href="#ac"/><use transform="matrix(0.05,0,0,0.05,3.95,0)" xlink:href="#ae"/><use transform="matrix(0.05,0,0,0.05,13.949999999999998,0)" xlink:href="#ay"/><use transform="matrix(0.05,0,0,0.05,23.95,0)" xlink:href="#at"/><use transform="matrix(0.05,0,0,0.05,33.95,0)" xlink:href="#af"/></g><g id="O"><use transform="matrix(0.05,0,0,0.05,0,0)" xlink:href="#ar"/><use transform="matrix(0.05,0,0,0.05,9,0)" xlink:href="#af"/><use transform="matrix(0.05,0,0,0.05,14,0)" xlink:href="#al"/><use transform="matrix(0.05,0,0,0.05,24,0)" xlink:href="#af"/><use transform="matrix(0.05,0,0,0.05,29,0)" xlink:href="#ad"/><use transform="matrix(0.05,0,0,0.05,39,0)" xlink:href="#ar"/></g><g id="P"><use transform="matrix(0.05,0,0,0.05,0,0)" xlink:href="#ai"/><use transform="matrix(0.05,0,0,0.05,5.95,0)" xlink:href="#ad"/><use transform="matrix(0.05,0,0,0.05,15.949999999999998,0)" xlink:href="#av"/><use transform="matrix(0.05,0,0,0.05,24.95,0)" xlink:href="#ah"/><use transform="matrix(0.05,0,0,0.05,34.95,0)" xlink:href="#ai"/><use transform="matrix(0.05,0,0,0.05,40.900000000000006,0)" xlink:href="#ao"/></g><g id="Q"><use transform="matrix(0.05,0,0,0.05,0,0)" xlink:href="#ab"/><use transform="matrix(0.05,0,0,0.05,3.95,0)" xlink:href="#al"/><use transform="matrix(0.05,0,0,0.05,13.949999999999998,0)" xlink:href="#ar"/><use transform="matrix(0.05,0,0,0.05,22.95,0)" xlink:href="#af"/></g><g id="R"><use transform="matrix(0.05,0,0,0.05,0,0)" xlink:href="#av"/><use transform="matrix(0.05,0,0,0.05,9,0)" xlink:href="#ah"/><use transform="matrix(0.05,0,0,0.05,19,0)" xlink:href="#ae"/><use transform="matrix(0.05,0,0,0.05,29,0)" xlink:href="#ar"/><use transform="matrix(0.05,0,0,0.05,38,0)" xlink:href="#at"/><use transform="matrix(0.05,0,0,0.05,48,0)" xlink:href="#aE"/><use transform="matrix(0.05,0,0,0.05,62.95,0)" xlink:href="#ad"/><use transform="matrix(0.05,0,0,0.05,72.95,0)" xlink:href="#ai"/></g><g id="S"><use transform="matrix(0.05,0,0,0.05,0,0)" xlink:href="#ai"/><use transform="matrix(0.05,0,0,0.05,5.95,0)" xlink:href="#ad"/><use transform="matrix(0.05,0,0,0.05,15.949999999999998,0)" xlink:href="#av"/><use transform="matrix(0.05,0,0,0.05,24.95,0)" xlink:href="#ah"/><use transform="matrix(0.05,0,0,0.05,34.95,0)" xlink:href="#ai"/><use transform="matrix(0.05,0,0,0.05,40.900000000000006,0)" xlink:href="#ao"/></g><g id="T"><use transform="matrix(0.05,0,0,0.05,0,0)" xlink:href="#ay"/><use transform="matrix(0.05,0,0,0.05,10,0)" xlink:href="#ah"/><use transform="matrix(0.05,0,0,0.05,20,0)" xlink:href="#ar"/><use transform="matrix(0.05,0,0,0.05,29,0)" xlink:href="#ac"/><use transform="matrix(0.05,0,0,0.05,32.95,0)" xlink:href="#af"/><use transform="matrix(0.05,0,0,0.05,37.95,0)" xlink:href="#ac"/><use transform="matrix(0.05,0,0,0.05,41.900000000000006,0)" xlink:href="#ah"/><use transform="matrix(0.05,0,0,0.05,51.900000000000006,0)" xlink:href="#ae"/></g><path d="M99-251c64 0 84 50 84 122C183-37 130 33 47-8c-14-7-20-23-25-40l30-5c6 39 69 39 84 7 9-19 16-44 16-74-10 22-31 35-62 35-49 0-73-33-73-83 0-54 28-83 82-83zm-1 141c31-1 51-18 51-49 0-36-14-67-51-67-34 0-49 23-49 58 0 34 15 58 49 58" id="aJ"/><g id="U"><use transform="matrix(0.05,0,0,0.05,0,0)" xlink:href="#aJ"/><use transform="matrix(0.05,0,0,0.05,10,0)" xlink:href="#aq"/></g><g id="V"><use transform="matrix(0.05,0,0,0.05,0,0)" xlink:href="#av"/><use transform="matrix(0.05,0,0,0.05,9,0)" xlink:href="#ah"/><use transform="matrix(0.05,0,0,0.05,19,0)" xlink:href="#aE"/><use transform="matrix(0.05,0,0,0.05,33.95,0)" xlink:href="#aE"/><use transform="matrix(0.05,0,0,0.05,48.900000000000006,0)" xlink:href="#ac"/><use transform="matrix(0.05,0,0,0.05,52.85,0)" xlink:href="#af"/></g><g id="W"><use transform="matrix(0.05,0,0,0.05,0,0)" xlink:href="#av"/><use transform="matrix(0.05,0,0,0.05,9,0)" xlink:href="#ah"/><use transform="matrix(0.05,0,0,0.05,19,0)" xlink:href="#ae"/><use transform="matrix(0.05,0,0,0.05,29,0)" xlink:href="#ar"/><use transform="matrix(0.05,0,0,0.05,38,0)" xlink:href="#at"/><use transform="matrix(0.05,0,0,0.05,48,0)" xlink:href="#aE"/><use transform="matrix(0.05,0,0,0.05,62.95,0)" xlink:href="#ad"/><use transform="matrix(0.05,0,0,0.05,72.95,0)" xlink:href="#ao"/></g><path d="M101-251c68 0 85 55 85 127S166 4 100 4C33 4 14-52 14-124c0-73 17-127 87-127zm-1 229c47 0 54-49 54-102s-4-102-53-102c-51 0-55 48-55 102 0 53 5 102 54 102" id="aK"/><g id="X"><use transform="matrix(0.05,0,0,0.05,0,0)" xlink:href="#ap"/><use transform="matrix(0.05,0,0,0.05,10,0)" xlink:href="#aK"/><use transform="matrix(0.05,0,0,0.05,20,0)" xlink:href="#aq"/></g><g id="Y"><use transform="matrix(0.05,0,0,0.05,0,0)" xlink:href="#ai"/><use transform="matrix(0.05,0,0,0.05,5.95,0)" xlink:href="#ad"/><use transform="matrix(0.05,0,0,0.05,15.949999999999998,0)" xlink:href="#ar"/><use transform="matrix(0.05,0,0,0.05,24.95,0)" xlink:href="#ay"/><use transform="matrix(0.05,0,0,0.05,34.95,0)" xlink:href="#ah"/><use transform="matrix(0.05,0,0,0.05,44.95,0)" xlink:href="#ae"/><use transform="matrix(0.05,0,0,0.05,54.95,0)" xlink:href="#ar"/><use transform="matrix(0.05,0,0,0.05,63.95,0)" xlink:href="#ad"/></g><path d="M87 75C49 33 22-17 22-94c0-76 28-126 65-167h31c-38 41-64 92-64 168S80 34 118 75H87" id="aL"/><path d="M177-190C167-65 218 103 67 71c-23-6-38-20-44-43l32-5c15 47 100 32 89-28v-30C133-14 115 1 83 1 29 1 15-40 15-95c0-56 16-97 71-98 29-1 48 16 59 35 1-10 0-23 2-32h30zM94-22c36 0 50-32 50-73 0-42-14-75-50-75-39 0-46 34-46 75s6 73 46 73" id="aM"/><path d="M0 4l72-265h28L28 4H0" id="aN"/><path d="M33-261c38 41 65 92 65 168S71 34 33 75H2C39 34 66-17 66-93S39-220 2-261h31" id="aO"/><g id="Z"><use transform="matrix(0.05,0,0,0.05,0,0)" xlink:href="#aL"/><use transform="matrix(0.05,0,0,0.05,5.95,0)" xlink:href="#ar"/><use transform="matrix(0.05,0,0,0.05,14.949999999999998,0)" xlink:href="#ac"/><use transform="matrix(0.05,0,0,0.05,18.9,0)" xlink:href="#aM"/><use transform="matrix(0.05,0,0,0.05,28.899999999999995,0)" xlink:href="#ae"/><use transform="matrix(0.05,0,0,0.05,38.9,0)" xlink:href="#al"/><use transform="matrix(0.05,0,0,0.05,48.9,0)" xlink:href="#af"/><use transform="matrix(0.05,0,0,0.05,53.900000000000006,0)" xlink:href="#at"/><use transform="matrix(0.05,0,0,0.05,63.900000000000006,0)" xlink:href="#ai"/><use transform="matrix(0.05,0,0,0.05,69.85,0)" xlink:href="#ad"/><use transform="matrix(0.05,0,0,0.05,79.85,0)" xlink:href="#aN"/><use transform="matrix(0.05,0,0,0.05,84.85,0)" xlink:href="#ad"/><use transform="matrix(0.05,0,0,0.05,94.85,0)" xlink:href="#ai"/><use transform="matrix(0.05,0,0,0.05,100.8,0)" xlink:href="#ai"/><use transform="matrix(0.05,0,0,0.05,106.75,0)" xlink:href="#ah"/><use transform="matrix(0.05,0,0,0.05,116.75,0)" xlink:href="#ai"/><use transform="matrix(0.05,0,0,0.05,122.7,0)" xlink:href="#aO"/></g></defs></g></svg>