<svg xmlns="http://www.w3.org/2000/svg" xmlns:xlink="http://www.w3.org/1999/xlink" xmlns:lucid="lucid" width="831" height="837.6"><g transform="translate(-60 -29)" lucid:page-tab-id="aZsrx7x-7oqN"><path d="M0 0h1360v1760H0z" fill="#fff"/><path d="M566 640c7.73 0 14 11.9 14 26.6 0 14.7-6.27 26.6-14 26.6H454c-7.73 0-14-11.9-14-26.6 0-14.7 6.27-26.6 14-26.6z" stroke="#999" stroke-width="2" fill="#fff"/><path d="M566 693.2c-7.73 0-14-11.9-14-26.6 0-14.7 6.27-26.6 14-26.6" stroke="#999" stroke-width="2" fill="none"/><path d="M586 620c7.73 0 14 11.9 14 26.6 0 14.7-6.27 26.6-14 26.6H474c-7.73 0-14-11.9-14-26.6 0-14.7 6.27-26.6 14-26.6z" stroke="#999" stroke-width="2" fill="#fff"/><path d="M586 673.2c-7.73 0-14-11.9-14-26.6 0-14.7 6.27-26.6 14-26.6" stroke="#999" stroke-width="2" fill="none"/><path d="M606 599.8c7.73 0 14 11.9 14 26.6 0 14.7-6.27 26.6-14 26.6H494c-7.73 0-14-11.9-14-26.6 0-14.7 6.27-26.6 14-26.6z" stroke="#999" stroke-width="2" fill="#fff"/><path d="M606 653c-7.73 0-14-11.9-14-26.6 0-14.7 6.27-26.6 14-26.6" stroke="#999" stroke-width="2" fill="none"/><use xlink:href="#a" transform="matrix(1,0,0,1,485,604.7970415597348) translate(0.04999999999999716 25.6)"/><use xlink:href="#b" transform="matrix(1,0,0,1,485,604.7970415597348) translate(51.05 25.6)"/><path d="M280 100h540v140H280z" fill-opacity="0"/><path d="M300 100h20m10 0h20m10 0h20m10 0h20m10 0h20m10 0h20m10 0h20m10 0h20m10 0h20m10 0h20m10 0h20m10 0h20m10 0h20m10 0h20m10 0h20m10 0h20m10 0h20m10 0h10v9.33m0 9.34v18.66m0 9.34v18.66m0 9.34v18.66m0 9.34v18.66m0 9.34V240h-10m-10 0h-20m-10 0h-20m-10 0h-20m-10 0h-20m-10 0h-20m-10 0h-20m-10 0h-20m-10 0h-20m-10 0h-20m-10 0h-20m-10 0h-20m-10 0h-20m-10 0h-20m-10 0h-20m-10 0h-20m-10 0h-20m-10 0h-20m-10 0h-10v-9.33m0-9.34v-18.66m0-9.34v-18.66m0-9.34v-18.66m0-9.34v-18.66m0-9.34V100h10" stroke="#666" stroke-width="2" fill="none"/><use xlink:href="#c" transform="matrix(1,0,0,1,285,105) translate(228.75 68.60000000000001)"/><use xlink:href="#d" transform="matrix(1,0,0,1,285,105) translate(291.25 68.60000000000001)"/><path d="M220 170c0 22.1-17.9 40-40 40s-40-17.9-40-40 17.9-40 40-40 40 17.9 40 40z" stroke="#000" stroke-width="2" fill="#fff"/><use xlink:href="#e" transform="matrix(1,0,0,1,145,135) translate(15.55 38.6)"/><path d="M160 330c0 22.1-17.9 40-40 40s-40-17.9-40-40 17.9-40 40-40 40 17.9 40 40z" stroke="#000" stroke-width="2" fill="#fff"/><use xlink:href="#f" transform="matrix(1,0,0,1,85,295) translate(19 38.6)"/><path d="M221 170h79.76" stroke="#5abaa7" stroke-width="2" fill="none"/><path d="M221 171h-1.06l.06-1-.04-1H221zM315.76 170l-14.26 4.64v-9.28z" fill="#5abaa7"/><path d="M319 170l-18.5 6v-12zm-16.5 3.26l10.03-3.26-10.03-3.26z" fill="#5abaa7"/><path d="M161 330h140.1" stroke="#834187" stroke-width="2" fill="none"/><path d="M161 331h-1.06l.06-1-.04-1H161zM316.1 330l-14.27 4.64v-9.28z" fill="#834187"/><path d="M319.33 330l-18.5 6v-12zm-16.5 3.26l10.03-3.26-10.03-3.26z" fill="#834187"/><path d="M800 206c0 4.97-26.86 9-60 9s-60-4.03-60-9v-72c0-4.97 26.86-9 60-9s60 4.03 60 9z" stroke="#0c7cba" stroke-width="2" fill="#fff"/><path d="M800 134c0 4.97-26.86 9-60 9s-60-4.03-60-9" stroke="#0c7cba" stroke-width="2" fill="none"/><use xlink:href="#g" transform="matrix(1,0,0,1,685,148) translate(17.549999999999997 34.6)"/><path d="M419.33 170c0 22.1-22.23 40-49.66 40-27.43 0-49.67-17.9-49.67-40s22.24-40 49.67-40c27.43 0 49.66 17.9 49.66 40z" stroke="#0c7cba" stroke-width="2" fill-opacity="0"/><use xlink:href="#h" transform="matrix(1,0,0,1,325,135) translate(9.574999999999996 38.6)"/><path d="M280 260h540v140H280z" fill-opacity="0"/><path d="M300 260h20m10 0h20m10 0h20m10 0h20m10 0h20m10 0h20m10 0h20m10 0h20m10 0h20m10 0h20m10 0h20m10 0h20m10 0h20m10 0h20m10 0h20m10 0h20m10 0h20m10 0h10v9.33m0 9.34v18.66m0 9.34v18.66m0 9.34v18.66m0 9.34v18.66m0 9.34V400h-10m-10 0h-20m-10 0h-20m-10 0h-20m-10 0h-20m-10 0h-20m-10 0h-20m-10 0h-20m-10 0h-20m-10 0h-20m-10 0h-20m-10 0h-20m-10 0h-20m-10 0h-20m-10 0h-20m-10 0h-20m-10 0h-20m-10 0h-20m-10 0h-10v-9.33m0-9.34v-18.66m0-9.34v-18.66m0-9.34v-18.66m0-9.34v-18.66m0-9.34V260h10" stroke="#666" stroke-width="2" fill="none"/><use xlink:href="#c" transform="matrix(1,0,0,1,285,265) translate(228.75 68.60000000000001)"/><use xlink:href="#i" transform="matrix(1,0,0,1,285,265) translate(291.25 68.60000000000001)"/><path d="M800 366c0 4.97-26.86 9-60 9s-60-4.03-60-9v-72c0-4.97 26.86-9 60-9s60 4.03 60 9z" stroke="#0c7cba" stroke-width="2" fill="#fff"/><path d="M800 294c0 4.97-26.86 9-60 9s-60-4.03-60-9" stroke="#0c7cba" stroke-width="2" fill="none"/><use xlink:href="#g" transform="matrix(1,0,0,1,685,308) translate(17.549999999999997 34.6)"/><path d="M419.67 330c0 22.1-22.24 40-49.67 40-27.43 0-49.67-17.9-49.67-40s22.24-40 49.67-40c27.43 0 49.67 17.9 49.67 40z" stroke="#0c7cba" stroke-width="2" fill-opacity="0"/><use xlink:href="#h" transform="matrix(1,0,0,1,325.3333333333333,295) translate(9.574999999999996 38.6)"/><path d="M280 420h540v140H280z" fill-opacity="0"/><path d="M300 420h20m10 0h20m10 0h20m10 0h20m10 0h20m10 0h20m10 0h20m10 0h20m10 0h20m10 0h20m10 0h20m10 0h20m10 0h20m10 0h20m10 0h20m10 0h20m10 0h20m10 0h10v9.33m0 9.34v18.66m0 9.34v18.66m0 9.34v18.66m0 9.34v18.66m0 9.34V560h-10m-10 0h-20m-10 0h-20m-10 0h-20m-10 0h-20m-10 0h-20m-10 0h-20m-10 0h-20m-10 0h-20m-10 0h-20m-10 0h-20m-10 0h-20m-10 0h-20m-10 0h-20m-10 0h-20m-10 0h-20m-10 0h-20m-10 0h-20m-10 0h-10v-9.33m0-9.34v-18.66m0-9.34v-18.66m0-9.34v-18.66m0-9.34v-18.66m0-9.34V420h10" stroke="#666" stroke-width="2" fill="none"/><use xlink:href="#c" transform="matrix(1,0,0,1,285,425.00000000000006) translate(228.75 68.60000000000001)"/><use xlink:href="#j" transform="matrix(1,0,0,1,285,425.00000000000006) translate(291.25 68.60000000000001)"/><path d="M800 526c0 4.97-26.86 9-60 9s-60-4.03-60-9v-72c0-4.97 26.86-9 60-9s60 4.03 60 9z" stroke="#0c7cba" stroke-width="2" fill="#fff"/><path d="M800 454c0 4.97-26.86 9-60 9s-60-4.03-60-9" stroke="#0c7cba" stroke-width="2" fill="none"/><use xlink:href="#g" transform="matrix(1,0,0,1,685,468.00000000000006) translate(17.549999999999997 34.6)"/><path d="M419 490c0 22.1-22.24 40-49.67 40-27.43 0-49.66-17.9-49.66-40s22.23-40 49.66-40c27.43 0 49.67 17.9 49.67 40z" stroke="#0c7cba" stroke-width="2" fill-opacity="0"/><use xlink:href="#h" transform="matrix(1,0,0,1,324.66666666666663,455.00000000000006) translate(9.574999999999996 38.6)"/><path d="M420.33 170h29.34v456.4h11.1" stroke="#0c7cba" stroke-width="2" fill="none"/><path d="M420.33 171h-1.05l.05-1-.03-1h1.03zM475.76 626.4l-14.26 4.63v-9.27z" fill="#0c7cba"/><path d="M479 626.4l-18.5 6v-12zm-16.5 3.26l10.03-3.26-10.03-3.26z" fill="#0c7cba"/><path d="M420.67 330h29.16v296.4h10.93" stroke="#0c7cba" stroke-width="2" fill="none"/><path d="M420.67 331h-1.05l.05-1-.03-1h1.03zM475.76 626.4l-14.26 4.63v-9.27z" fill="#0c7cba"/><path d="M479 626.4l-18.5 6v-12zm-16.5 3.26l10.03-3.26-10.03-3.26z" fill="#0c7cba"/><path d="M621 626.4h19V170h20.77" stroke="#0c7cba" stroke-width="2" fill="none"/><path d="M621 627.4h-1.1l.1-1-.03-1H621zM675.77 170l-14.27 4.64v-9.28z" fill="#0c7cba"/><path d="M679 170l-18.5 6v-12zm-16.5 3.26l10.03-3.26-10.03-3.26z" fill="#0c7cba"/><path d="M621 626.4h19V330h20.77" stroke="#0c7cba" stroke-width="2" fill="none"/><path d="M621 627.4h-1.1l.1-1-.03-1H621zM675.77 330l-14.27 4.64v-9.28z" fill="#0c7cba"/><path d="M679 330l-18.5 6v-12zm-16.5 3.26l10.03-3.26-10.03-3.26z" fill="#0c7cba"/><path d="M621 626.4h19V490h20.77" stroke="#0c7cba" stroke-width="2" fill="none"/><path d="M621 627.4h-1.1l.1-1-.03-1H621zM675.77 490l-14.27 4.64v-9.28z" fill="#0c7cba"/><path d="M679 490l-18.5 6v-12zm-16.5 3.26l10.03-3.26-10.03-3.26z" fill="#0c7cba"/><path d="M801 170h40V85H180v25.76" stroke="#5abaa7" stroke-width="2" fill="none"/><path d="M801 171h-1v-2h1zM180 125.76l-4.64-14.26h9.28z" fill="#5abaa7"/><path d="M180 129l-6-18.5h12zm-3.26-16.5l3.26 10.03 3.26-10.03z" fill="#5abaa7"/><path d="M801 330h79V40H120v230.76" stroke="#834187" stroke-width="2" fill="none"/><path d="M801 331h-1v-2h1zM120 285.76l-4.64-14.26h9.28z" fill="#834187"/><path d="M120 289l-6-18.5h12zm-3.26-16.5l3.26 10.03 3.26-10.03z" fill="#834187"/><path d="M500 793.4h140v53.2H500z" stroke="#999" stroke-width="2" fill="#fff"/><path d="M480 773.4h140v53.2H480z" stroke="#999" stroke-width="2" fill="#fff"/><path d="M460 753.4h140v53.2H460z" stroke="#999" stroke-width="2" fill="#fff"/><use xlink:href="#k" transform="matrix(1,0,0,1,465,758.4) translate(22.049999999999997 25.6)"/><path d="M530.67 712.44v21.72" stroke="#999" stroke-width="2" fill="none"/><path d="M535.3 711.7h-9.27l4.64-14.26z" fill="#999"/><path d="M536.68 712.7h-12.03l6.02-18.5zm-9.27-2h6.53l-3.26-10.03zM530.67 749.16l-4.64-14.26h9.27z" fill="#999"/><path d="M530.67 752.4l-6.02-18.5h12.03zm-3.26-16.5l3.27 10.03 3.26-10.03z" fill="#999"/><defs><path d="M194 0L95-120 63-95V0H30v-248h33v124l119-124h40L117-140 236 0h-42" id="l"/><path d="M141-36C126-15 110 5 73 4 37 3 15-17 15-53c-1-64 63-63 125-63 3-35-9-54-41-54-24 1-41 7-42 31l-33-3c5-37 33-52 76-52 45 0 72 20 72 64v82c-1 20 7 32 28 27v20c-31 9-61-2-59-35zM48-53c0 20 12 33 32 33 41-3 63-29 60-74-43 2-92-5-92 41" id="m"/><path d="M101-234c-31-9-42 10-38 44h38v23H63V0H32v-167H5v-23h27c-7-52 17-82 69-68v24" id="n"/><path d="M143 0L79-87 56-68V0H24v-261h32v163l83-92h37l-77 82L181 0h-38" id="o"/><g id="a"><use transform="matrix(0.05,0,0,0.05,0,0)" xlink:href="#l"/><use transform="matrix(0.05,0,0,0.05,12,0)" xlink:href="#m"/><use transform="matrix(0.05,0,0,0.05,22,0)" xlink:href="#n"/><use transform="matrix(0.05,0,0,0.05,27,0)" xlink:href="#o"/><use transform="matrix(0.05,0,0,0.05,36,0)" xlink:href="#m"/></g><path d="M115-194c53 0 69 39 70 98 0 66-23 100-70 100C84 3 66-7 56-30L54 0H23l1-261h32v101c10-23 28-34 59-34zm-8 174c40 0 45-34 45-75 0-40-5-75-45-74-42 0-51 32-51 76 0 43 10 73 51 73" id="p"/><path d="M114-163C36-179 61-72 57 0H25l-1-190h30c1 12-1 29 2 39 6-27 23-49 58-41v29" id="q"/><path d="M100-194c62-1 85 37 85 99 1 63-27 99-86 99S16-35 15-95c0-66 28-99 85-99zM99-20c44 1 53-31 53-75 0-43-8-75-51-75s-53 32-53 75 10 74 51 75" id="r"/><path d="M100-194c63 0 86 42 84 106H49c0 40 14 67 53 68 26 1 43-12 49-29l28 8c-11 28-37 45-77 45C44 4 14-33 15-96c1-61 26-98 85-98zm52 81c6-60-76-77-97-28-3 7-6 17-6 28h103" id="s"/><g id="b"><use transform="matrix(0.05,0,0,0.05,0,0)" xlink:href="#p"/><use transform="matrix(0.05,0,0,0.05,10,0)" xlink:href="#q"/><use transform="matrix(0.05,0,0,0.05,15.949999999999998,0)" xlink:href="#r"/><use transform="matrix(0.05,0,0,0.05,25.950000000000003,0)" xlink:href="#o"/><use transform="matrix(0.05,0,0,0.05,34.95,0)" xlink:href="#s"/><use transform="matrix(0.05,0,0,0.05,44.95,0)" xlink:href="#q"/></g><path fill="#666" d="M266 0h-40l-56-210L115 0H75L2-248h35L96-30l15-64 43-154h32l59 218 59-218h35" id="t"/><path fill="#666" d="M100-194c62-1 85 37 85 99 1 63-27 99-86 99S16-35 15-95c0-66 28-99 85-99zM99-20c44 1 53-31 53-75 0-43-8-75-51-75s-53 32-53 75 10 74 51 75" id="u"/><path fill="#666" d="M114-163C36-179 61-72 57 0H25l-1-190h30c1 12-1 29 2 39 6-27 23-49 58-41v29" id="v"/><path fill="#666" d="M143 0L79-87 56-68V0H24v-261h32v163l83-92h37l-77 82L181 0h-38" id="w"/><path fill="#666" d="M100-194c63 0 86 42 84 106H49c0 40 14 67 53 68 26 1 43-12 49-29l28 8c-11 28-37 45-77 45C44 4 14-33 15-96c1-61 26-98 85-98zm52 81c6-60-76-77-97-28-3 7-6 17-6 28h103" id="x"/><g id="c"><use transform="matrix(0.05,0,0,0.05,0,0)" xlink:href="#t"/><use transform="matrix(0.05,0,0,0.05,16.599999999999998,0)" xlink:href="#u"/><use transform="matrix(0.05,0,0,0.05,26.599999999999994,0)" xlink:href="#v"/><use transform="matrix(0.05,0,0,0.05,32.55,0)" xlink:href="#w"/><use transform="matrix(0.05,0,0,0.05,41.55,0)" xlink:href="#x"/><use transform="matrix(0.05,0,0,0.05,51.54999999999999,0)" xlink:href="#v"/></g><path fill="#666" d="M27 0v-27h64v-190l-56 39v-29l58-41h29v221h61V0H27" id="y"/><use transform="matrix(0.05,0,0,0.05,0,0)" xlink:href="#y" id="d"/><path d="M205 0l-28-72H64L36 0H1l101-248h38L239 0h-34zm-38-99l-47-123c-12 45-31 82-46 123h93" id="z"/><path d="M24 0v-261h32V0H24" id="A"/><path d="M24-231v-30h32v30H24zM24 0v-190h32V0H24" id="B"/><path d="M96-169c-40 0-48 33-48 73s9 75 48 75c24 0 41-14 43-38l32 2c-6 37-31 61-74 61-59 0-76-41-82-99-10-93 101-131 147-64 4 7 5 14 7 22l-32 3c-4-21-16-35-41-35" id="C"/><g id="e"><use transform="matrix(0.05,0,0,0.05,0,0)" xlink:href="#z"/><use transform="matrix(0.05,0,0,0.05,12,0)" xlink:href="#A"/><use transform="matrix(0.05,0,0,0.05,15.949999999999998,0)" xlink:href="#B"/><use transform="matrix(0.05,0,0,0.05,19.9,0)" xlink:href="#C"/><use transform="matrix(0.05,0,0,0.05,28.899999999999995,0)" xlink:href="#s"/></g><path d="M160-131c35 5 61 23 61 61C221 17 115-2 30 0v-248c76 3 177-17 177 60 0 33-19 50-47 57zm-97-11c50-1 110 9 110-42 0-47-63-36-110-37v79zm0 115c55-2 124 14 124-45 0-56-70-42-124-44v89" id="D"/><g id="f"><use transform="matrix(0.05,0,0,0.05,0,0)" xlink:href="#D"/><use transform="matrix(0.05,0,0,0.05,12,0)" xlink:href="#r"/><use transform="matrix(0.05,0,0,0.05,22,0)" xlink:href="#p"/></g><path d="M233-177c-1 41-23 64-60 70L243 0h-38l-65-103H63V0H30v-248c88 3 205-21 203 71zM63-129c60-2 137 13 137-47 0-61-80-42-137-45v92" id="E"/><path d="M135-143c-3-34-86-38-87 0 15 53 115 12 119 90S17 21 10-45l28-5c4 36 97 45 98 0-10-56-113-15-118-90-4-57 82-63 122-42 12 7 21 19 24 35" id="F"/><path d="M30-248c118-7 216 8 213 122C240-48 200 0 122 0H30v-248zM63-27c89 8 146-16 146-99s-60-101-146-95v194" id="G"/><g id="g"><use transform="matrix(0.05,0,0,0.05,0,0)" xlink:href="#E"/><use transform="matrix(0.05,0,0,0.05,12.950000000000001,0)" xlink:href="#r"/><use transform="matrix(0.05,0,0,0.05,22.950000000000003,0)" xlink:href="#C"/><use transform="matrix(0.05,0,0,0.05,31.950000000000003,0)" xlink:href="#o"/><use transform="matrix(0.05,0,0,0.05,40.95,0)" xlink:href="#F"/><use transform="matrix(0.05,0,0,0.05,49.95,0)" xlink:href="#G"/><use transform="matrix(0.05,0,0,0.05,62.900000000000006,0)" xlink:href="#D"/></g><path d="M108 0H70L1-190h34L89-25l56-165h34" id="H"/><g id="h"><use transform="matrix(0.05,0,0,0.05,0,0)" xlink:href="#E"/><use transform="matrix(0.05,0,0,0.05,12.950000000000001,0)" xlink:href="#s"/><use transform="matrix(0.05,0,0,0.05,22.950000000000003,0)" xlink:href="#C"/><use transform="matrix(0.05,0,0,0.05,31.950000000000003,0)" xlink:href="#s"/><use transform="matrix(0.05,0,0,0.05,41.95,0)" xlink:href="#B"/><use transform="matrix(0.05,0,0,0.05,45.900000000000006,0)" xlink:href="#H"/><use transform="matrix(0.05,0,0,0.05,54.900000000000006,0)" xlink:href="#s"/><use transform="matrix(0.05,0,0,0.05,64.9,0)" xlink:href="#q"/></g><path fill="#666" d="M101-251c82-7 93 87 43 132L82-64C71-53 59-42 53-27h129V0H18c2-99 128-94 128-182 0-28-16-43-45-43s-46 15-49 41l-32-3c6-41 34-60 81-64" id="I"/><use transform="matrix(0.05,0,0,0.05,0,0)" xlink:href="#I" id="i"/><path fill="#666" d="M126-127c33 6 58 20 58 59 0 88-139 92-164 29-3-8-5-16-6-25l32-3c6 27 21 44 54 44 32 0 52-15 52-46 0-38-36-46-79-43v-28c39 1 72-4 72-42 0-27-17-43-46-43-28 0-47 15-49 41l-32-3c6-42 35-63 81-64 48-1 79 21 79 65 0 36-21 52-52 59" id="J"/><use transform="matrix(0.05,0,0,0.05,0,0)" xlink:href="#J" id="j"/><path d="M209 0H11v-25l151-195H24v-28h176v25L50-27h159V0" id="K"/><path d="M115-194c55 1 70 41 70 98S169 2 115 4C84 4 66-9 55-30l1 105H24l-1-265h31l2 30c10-21 28-34 59-34zm-8 174c40 0 45-34 45-75s-6-73-45-74c-42 0-51 32-51 76 0 43 10 73 51 73" id="L"/><g id="k"><use transform="matrix(0.05,0,0,0.05,0,0)" xlink:href="#K"/><use transform="matrix(0.05,0,0,0.05,10.950000000000001,0)" xlink:href="#r"/><use transform="matrix(0.05,0,0,0.05,20.950000000000003,0)" xlink:href="#r"/><use transform="matrix(0.05,0,0,0.05,30.950000000000003,0)" xlink:href="#o"/><use transform="matrix(0.05,0,0,0.05,39.95,0)" xlink:href="#s"/><use transform="matrix(0.05,0,0,0.05,49.95,0)" xlink:href="#s"/><use transform="matrix(0.05,0,0,0.05,59.95,0)" xlink:href="#L"/><use transform="matrix(0.05,0,0,0.05,69.95,0)" xlink:href="#s"/><use transform="matrix(0.05,0,0,0.05,79.95,0)" xlink:href="#q"/></g></defs></g></svg>